<svg xmlns="http://www.w3.org/2000/svg" viewBox="0 0 900 1010">
  <defs><linearGradient id="g" x2="1" y2="1"><stop stop-color="#405840"/><stop offset="1" stop-color="#172d23"/></linearGradient><filter id="s"><feDropShadow dy="20" stdDeviation="18" flood-opacity=".3"/></filter></defs>
  <rect width="900" height="1010" fill="url(#g)"/><circle cx="700" cy="170" r="240" fill="#80906f" opacity=".25"/>
  <g fill="none" stroke="#a9b79d" stroke-width="5" opacity=".45"><path d="M80 900C150 620 220 360 380 90M110 700c100-20 180 12 245 95M190 470c80 0 145 40 190 105M800 880C730 640 685 400 570 150M770 680c-80-5-140 30-185 95"/></g>
  <g filter="url(#s)"><rect x="260" y="370" width="380" height="400" rx="70" fill="#e5ddcf"/><rect x="240" y="295" width="420" height="130" rx="45" fill="#cbbca5"/><rect x="305" y="480" width="290" height="175" rx="6" fill="#f7f2e8"/></g>
  <text x="450" y="535" text-anchor="middle" font-family="Georgia" font-size="52" fill="#183126">FolliCare</text><text x="450" y="585" text-anchor="middle" font-family="Arial" font-size="18" letter-spacing="4" fill="#344b3a">ROOTED RITUAL</text><line x1="360" y1="620" x2="540" y2="620" stroke="#b68b4b"/>
</svg>
