<svg xmlns="http://www.w3.org/2000/svg" viewBox="0 0 1000 1080">
  <defs><linearGradient id="g" x1="0" y1="0" x2="1" y2="1"><stop stop-color="#4e634f"/><stop offset=".7" stop-color="#1d3428"/></linearGradient><filter id="s"><feDropShadow dy="25" stdDeviation="20" flood-opacity=".3"/></filter></defs>
  <rect width="1000" height="1080" fill="url(#g)"/><circle cx="820" cy="170" r="260" fill="#839276" opacity=".3"/><path d="M0 920c180-180 330-210 500-80s320 130 500-30v270H0Z" fill="#182c22"/>
  <g opacity=".28" fill="none" stroke="#dbe2d3" stroke-width="5"><path d="M50 780C150 520 270 260 440 80M130 610c80-15 150 10 205 70M220 410c85 4 135 45 170 100"/><path d="M960 560C850 360 765 195 650 70M900 410c-70-4-118 28-155 88"/></g>
  <g filter="url(#s)"><rect x="170" y="410" width="220" height="430" rx="46" fill="#d2a452"/><rect x="215" y="285" width="130" height="170" rx="25" fill="#d2a452"/><rect x="196" y="510" width="168" height="200" rx="5" fill="#f3e5c6"/><rect x="430" y="310" width="225" height="535" rx="52" fill="#4a392e"/><rect x="458" y="430" width="169" height="255" rx="5" fill="#f4efe4"/><rect x="480" y="190" width="125" height="165" rx="18" fill="#263b2c"/><rect x="700" y="480" width="190" height="360" rx="54" fill="#e7ded0"/><rect x="682" y="425" width="226" height="105" rx="35" fill="#d5c8b5"/></g>
  <text x="280" y="585" text-anchor="middle" font-family="Georgia" font-size="30" fill="#49351f">Protect</text><text x="542" y="520" text-anchor="middle" font-family="Georgia" font-size="33" fill="#183126">Revive</text><text x="795" y="595" text-anchor="middle" font-family="Georgia" font-size="30" fill="#183126">Nourish</text>
</svg>
