<svg xmlns="http://www.w3.org/2000/svg" viewBox="0 0 900 990">
  <defs><linearGradient id="g" y2="1"><stop stop-color="#e6e0d5"/><stop offset="1" stop-color="#b7c3ad"/></linearGradient><filter id="s"><feDropShadow dy="24" stdDeviation="20" flood-opacity=".2"/></filter></defs>
  <rect width="900" height="990" fill="url(#g)"/><path d="M0 760c210-140 320-90 440 5s250 110 460-30v255H0Z" fill="#8ca07d" opacity=".5"/>
  <g filter="url(#s)"><path d="M325 185q0-55 55-55h140q55 0 55 55v620q0 55-55 55H380q-55 0-55-55Z" fill="#344b3a"/><rect x="350" y="310" width="200" height="330" rx="10" fill="#efe9dd"/><rect x="355" y="92" width="190" height="105" rx="25" fill="#1f3428"/></g>
  <text x="450" y="385" text-anchor="middle" font-family="Georgia" font-size="44" fill="#183126">Repair Ritual</text><text x="450" y="440" text-anchor="middle" font-family="Arial" font-size="20" letter-spacing="4" fill="#344b3a">SHAMPOO</text><line x1="385" y1="475" x2="515" y2="475" stroke="#b68b4b"/><text x="450" y="525" text-anchor="middle" font-family="Arial" font-size="14" fill="#344b3a">GENTLE · SULFATE FREE</text><text x="450" y="590" text-anchor="middle" font-family="Arial" font-size="14" fill="#344b3a">250 ML</text>
</svg>
