<svg xmlns="http://www.w3.org/2000/svg" viewBox="0 0 900 990">
  <defs><linearGradient id="g" x1="0" y1="0" x2="1" y2="1"><stop stop-color="#f7eed8"/><stop offset="1" stop-color="#dfb667"/></linearGradient><filter id="s"><feDropShadow dy="22" stdDeviation="18" flood-opacity=".18"/></filter></defs>
  <rect width="900" height="990" fill="url(#g)"/><circle cx="690" cy="190" r="160" fill="#fff4c8" opacity=".8"/><g stroke="#fff4c8" stroke-width="8" opacity=".65"><path d="M690 0v55M690 325v55M500 190h55M825 190h55M550 50l40 40M790 290l40 40M550 330l40-40M790 90l40-40"/></g>
  <g filter="url(#s)"><rect x="315" y="248" width="270" height="560" rx="55" fill="#d49b41"/><rect x="362" y="112" width="176" height="190" rx="28" fill="#d49b41"/><path d="M395 112V72h110v40" stroke="#d49b41" stroke-width="20"/><rect x="337" y="350" width="226" height="280" rx="8" fill="#f6e7c5"/></g>
  <text x="450" y="420" text-anchor="middle" font-family="Georgia" font-size="45" fill="#49351f">UV Protector</text><text x="450" y="472" text-anchor="middle" font-family="Arial" font-size="18" letter-spacing="3" fill="#49351f">HAIR MIST</text><circle cx="450" cy="535" r="34" fill="none" stroke="#b68b4b" stroke-width="3"/><text x="450" y="543" text-anchor="middle" font-family="Arial" font-size="18" fill="#49351f">UV</text><text x="450" y="590" text-anchor="middle" font-family="Arial" font-size="14" fill="#49351f">120 ML</text>
</svg>
